<svg id="Camada_1" data-name="Camada 1" xmlns="http://www.w3.org/2000/svg" viewBox="0 0 221.72 92.16"><defs><style>.cls-1{fill:#d92121;}.cls-2{fill:#fff;}</style></defs><path class="cls-1" d="M196.32,302.47h-6.17l3-15.48h8.57l1.41-9.93.62-4.18H219l1.41-13.47H190.59l-3.53,17.65h7L192.84,287h-7.13l.95-6.09h-5.78L179.71,287h5.83l-8.1,41.07H209l1.68-14-16.41.15Zm-.79-31.23h4.06l-.53,5.82h-4.5Z" transform="translate(-174.46 -259.41)"/><polygon class="cls-1" points="40.07 29.53 41.19 22.61 36.89 22.61 35.78 29.53 26.61 29.53 24.65 41.78 34.65 41.78 36.25 29.53 39.78 29.53 38.45 38.15 45.94 38.15 47.13 29.53 40.07 29.53"/><path class="cls-2" d="M232.78,279.55h23.07l-2,9.16H242.49l-2.41,10.71H251l-1.87,8.73H238.37l-4,18.88H222.75Z" transform="translate(-174.46 -259.41)"/><path class="cls-2" d="M252.44,327l5-23.6c.78-3.66,1.4-7.54,2-11.06h9.79c-.16,1.83-.31,3.66-.55,5.5H269c3-4.44,6.45-6.06,9.41-6.06a6.79,6.79,0,0,1,1.78.21L278,302.38a12.87,12.87,0,0,0-1.94-.15c-3.89,0-7.77,3.6-9,9.73L263.93,327Z" transform="translate(-174.46 -259.41)"/><path class="cls-2" d="M296.65,327c.07-1.83.15-3.66.23-5.49h-.31c-2.72,4.08-6.53,6.06-9.64,6.06-6.06,0-8.78-4.65-8.78-10.64,0-10.5,5.6-25.15,22.69-25.15a40.89,40.89,0,0,1,11.34,1.55L308,312.45A84,84,0,0,0,306.43,327Zm3-27.4a12,12,0,0,0-1.87-.21c-5.51,0-8.39,11.13-8.39,15.14,0,2.47.31,4.51,2.64,4.51,2.1,0,4-2.67,5.29-8.73Z" transform="translate(-174.46 -259.41)"/><path class="cls-2" d="M311.41,327l5-23.6c.78-3.66,1.4-7.54,2-11.06h9.79l-.31,4.44H328a12.78,12.78,0,0,1,10.56-5c3.58,0,5.91,2,6.53,5a13.75,13.75,0,0,1,10.64-5c4.9,0,7.31,3,7.31,7.82a44.3,44.3,0,0,1-1,7.25L357.79,327H346.45l4.19-19.86a27.4,27.4,0,0,0,.63-5.08,1.81,1.81,0,0,0-1.95-2c-1.55,0-4,2.11-5.44,8.88L340,327H329l4.19-19.86a22.89,22.89,0,0,0,.62-4.79c0-1.34-.46-2.26-1.78-2.26s-4.2,2.4-5.52,8.88l-3.73,18Z" transform="translate(-174.46 -259.41)"/><path class="cls-2" d="M391.9,325.62A33.8,33.8,0,0,1,380,327.46c-10,0-14-5.64-14-13.32,0-10.36,6.29-22.33,19-22.33,7.62,0,11,5.07,11.12,10.14,0,9.94-8.47,13.46-19.2,13a3.41,3.41,0,0,0,1.17,2.74,7.31,7.31,0,0,0,5.05,1.69,19.56,19.56,0,0,0,8.16-1.69Zm-5.75-22.68c0-1.76-.77-2.82-2.48-2.82-2.8,0-5.05,3.24-5.68,7.19,4.74.28,8.16-1.55,8.16-4.3Z" transform="translate(-174.46 -259.41)"/><path class="cls-2" d="M176.44,342.36h-2l.21-1h5.12l-.21,1h-2l-1.86,9.1h-1.17Z" transform="translate(-174.46 -259.41)"/><path class="cls-2" d="M188.89,346.63h-2.71l-.79,3.86h3.09l-.21,1H184l2.08-10.11h4.06l-.21,1h-2.86l-.72,3.39h2.71Z" transform="translate(-174.46 -259.41)"/><path class="cls-2" d="M199.43,351.31a3.58,3.58,0,0,1-1.45.24c-2.27,0-2.84-1.88-2.84-3.52a7.76,7.76,0,0,1,2.08-5.56,4.22,4.22,0,0,1,2.94-1.21,2.68,2.68,0,0,1,1.09.18l-.35,1a2.4,2.4,0,0,0-.87-.14,2.79,2.79,0,0,0-2,.94,7,7,0,0,0-1.61,4.53c0,1.67.43,2.83,1.86,2.83a3.27,3.27,0,0,0,1.11-.19Z" transform="translate(-174.46 -259.41)"/><path class="cls-2" d="M205.67,351.46l2.07-10.11h1.12L210,346.8c.22,1,.41,2,.54,2.9h0c.15-1.09.3-2.28.54-3.46l1-4.89h1l-2.08,10.11h-1l-1.15-5.26a28.56,28.56,0,0,1-.54-3.15h0c-.14,1.05-.36,2.33-.6,3.53l-1,4.88Z" transform="translate(-174.46 -259.41)"/><path class="cls-2" d="M225.08,344.5c0,1.88-.77,4.92-2.19,6.23a2.94,2.94,0,0,1-2,.85c-2.11,0-2.33-2.11-2.33-3.19,0-1.94.77-5,2.27-6.33a3,3,0,0,1,2-.83C224.89,341.23,225.08,343.22,225.08,344.5Zm-3.47-1.85c-1.23,1.13-1.88,4.18-1.88,5.67,0,.86,0,2.29,1.29,2.29a1.49,1.49,0,0,0,1-.44c1.27-1.19,1.85-4.5,1.85-5.64s-.09-2.33-1.23-2.33A1.48,1.48,0,0,0,221.61,342.65Z" transform="translate(-174.46 -259.41)"/><path class="cls-2" d="M232.49,341.35h1.18l-1.89,9.15h3l-.2,1h-4.18Z" transform="translate(-174.46 -259.41)"/><path class="cls-2" d="M247,344.5c0,1.88-.77,4.92-2.19,6.23a2.93,2.93,0,0,1-2,.85c-2.1,0-2.33-2.11-2.33-3.19,0-1.94.77-5,2.28-6.33a3,3,0,0,1,2-.83C246.82,341.23,247,343.22,247,344.5Zm-3.47-1.85c-1.22,1.13-1.88,4.18-1.88,5.67,0,.86.05,2.29,1.29,2.29a1.49,1.49,0,0,0,1-.44c1.28-1.19,1.85-4.5,1.85-5.64s-.08-2.33-1.23-2.33A1.48,1.48,0,0,0,243.54,342.65Z" transform="translate(-174.46 -259.41)"/><path class="cls-2" d="M257.67,351.22a4.8,4.8,0,0,1-1.79.33,2.81,2.81,0,0,1-2.38-1.05,4.26,4.26,0,0,1-.73-2.55,7.58,7.58,0,0,1,2.14-5.46,4.62,4.62,0,0,1,3.16-1.23,3.55,3.55,0,0,1,1.34.21l-.38,1a2.94,2.94,0,0,0-1.09-.18,3,3,0,0,0-2.2.91,6.84,6.84,0,0,0-1.73,4.7c0,1.62.53,2.72,1.94,2.72a2.39,2.39,0,0,0,.77-.12l.68-3.36H256l.19-.91h2.51Z" transform="translate(-174.46 -259.41)"/><path class="cls-2" d="M267.68,341.35l-2.09,10.11h-1.17l2.08-10.11Z" transform="translate(-174.46 -259.41)"/><path class="cls-2" d="M274.63,348.4l-1.33,3.06h-1.17l4.54-10.11H278l.36,10.11h-1.15l-.09-3.06Zm2.47-.86-.06-2.62c0-.71,0-1.56,0-2.34H277c-.29.79-.61,1.67-.9,2.35L275,347.54Z" transform="translate(-174.46 -259.41)"/><path class="cls-2" d="M297,346.63h-2.7l-.79,3.86h3.09l-.21,1h-4.25l2.08-10.11h4.06l-.21,1h-2.86l-.72,3.39h2.71Z" transform="translate(-174.46 -259.41)"/><path class="cls-2" d="M310.39,351.46l2.07-10.11h1.12l1.13,5.45c.22,1,.41,2,.54,2.9h0c.16-1.09.3-2.28.54-3.46l1-4.89h1l-2.07,10.11h-1.06l-1.15-5.26a28.56,28.56,0,0,1-.54-3.15h0c-.14,1.05-.35,2.33-.6,3.53l-1,4.88Z" transform="translate(-174.46 -259.41)"/><path class="cls-2" d="M327.73,346.63H325l-.79,3.86h3.09l-.21,1h-4.24l2.07-10.11H329l-.21,1h-2.86l-.72,3.39h2.71Z" transform="translate(-174.46 -259.41)"/><path class="cls-2" d="M338.93,351.22a4.8,4.8,0,0,1-1.79.33,2.84,2.84,0,0,1-2.39-1.05A4.26,4.26,0,0,1,334,348a7.58,7.58,0,0,1,2.14-5.46,4.62,4.62,0,0,1,3.16-1.23,3.59,3.59,0,0,1,1.34.21l-.38,1a3,3,0,0,0-1.09-.18,3.08,3.08,0,0,0-2.21.91,6.88,6.88,0,0,0-1.72,4.7c0,1.62.53,2.72,1.93,2.72a2.41,2.41,0,0,0,.78-.12l.67-3.36h-1.4l.2-.91H340Z" transform="translate(-174.46 -259.41)"/><path class="cls-2" d="M352.61,344.5c0,1.88-.77,4.92-2.19,6.23a2.93,2.93,0,0,1-2.05.85c-2.1,0-2.33-2.11-2.33-3.19,0-1.94.77-5,2.28-6.33a3,3,0,0,1,2-.83C352.42,341.23,352.61,343.22,352.61,344.5Zm-3.47-1.85c-1.22,1.13-1.88,4.18-1.88,5.67,0,.86.05,2.29,1.29,2.29a1.49,1.49,0,0,0,1-.44c1.28-1.19,1.85-4.5,1.85-5.64s-.08-2.33-1.23-2.33A1.48,1.48,0,0,0,349.14,342.65Zm3.79-3.53-2.22,1.69h-1l1.74-1.69Z" transform="translate(-174.46 -259.41)"/><path class="cls-2" d="M362.61,351.31a3.58,3.58,0,0,1-1.45.24c-2.27,0-2.83-1.88-2.83-3.52a7.75,7.75,0,0,1,2.07-5.56,4.24,4.24,0,0,1,3-1.21,2.72,2.72,0,0,1,1.09.18l-.35,1a2.5,2.5,0,0,0-.88-.14,2.77,2.77,0,0,0-2,.94,6.92,6.92,0,0,0-1.61,4.53c0,1.67.42,2.83,1.85,2.83a3.38,3.38,0,0,0,1.12-.19Z" transform="translate(-174.46 -259.41)"/><path class="cls-2" d="M372.1,341.35,370,351.46h-1.17l2.07-10.11Z" transform="translate(-174.46 -259.41)"/><path class="cls-2" d="M384,344.5c0,1.88-.77,4.92-2.19,6.23a2.93,2.93,0,0,1-2,.85c-2.1,0-2.33-2.11-2.33-3.19,0-1.94.77-5,2.28-6.33a3,3,0,0,1,2-.83C383.84,341.23,384,343.22,384,344.5Zm-3.47-1.85c-1.22,1.13-1.88,4.18-1.88,5.67,0,.86.05,2.29,1.29,2.29a1.49,1.49,0,0,0,1-.44c1.28-1.19,1.85-4.5,1.85-5.64s-.08-2.33-1.23-2.33A1.48,1.48,0,0,0,380.56,342.65Z" transform="translate(-174.46 -259.41)"/><path class="cls-2" d="M389.43,350.19a3,3,0,0,0,1.46.37,1.86,1.86,0,0,0,2-1.95,2.73,2.73,0,0,0-1.13-2,3.44,3.44,0,0,1-1.35-2.49,2.86,2.86,0,0,1,3.1-2.82,3,3,0,0,1,1.45.32l-.36.93a2.61,2.61,0,0,0-1.21-.27,1.68,1.68,0,0,0-1.78,1.71,2.62,2.62,0,0,0,1.16,1.93,3.48,3.48,0,0,1,1.33,2.52,3,3,0,0,1-3.27,3.15,3.4,3.4,0,0,1-1.75-.41Z" transform="translate(-174.46 -259.41)"/></svg>